<?xml version="1.0" encoding="UTF-8"?>
<svg width="48px" height="80px" viewBox="0 0 48 80" version="1.1" xmlns="http://www.w3.org/2000/svg" xmlns:xlink="http://www.w3.org/1999/xlink">
    <title>E4A92913-38F3-40EF-8843-AE19DF459A2D</title>
    <defs>
        <filter id="filter-1">
            <feColorMatrix in="SourceGraphic" type="matrix" values="0 0 0 0 1.000000 0 0 0 0 1.000000 0 0 0 0 1.000000 0 0 0 1.000000 0"></feColorMatrix>
        </filter>
        <polygon id="path-2" points="0.0004 0.0008 47.902 0.0008 47.902 79.5498 0.0004 79.5498"></polygon>
    </defs>
    <g id="Page-1" stroke="none" stroke-width="1" fill="none" fill-rule="evenodd">
        <g id="Group-3" transform="translate(-1280.000000, -364.000000)" filter="url(#filter-1)">
            <g transform="translate(1280.000000, 364.000000)">
                <mask id="mask-3" fill="white">
                    <use xlink:href="#path-2"></use>
                </mask>
                <g id="Clip-2"></g>
                <path d="M38.6104,33.2188 L38.6104,34.0508 C38.6104,34.2708 38.4304,34.4508 38.2104,34.4508 L34.3204,34.4508 C34.1004,34.4508 33.9204,34.2708 33.9204,34.0508 L33.9204,33.3488 C33.9204,33.2388 33.9664,33.1328 34.0464,33.0568 L35.9944,31.2268 C36.5344,30.7208 36.5764,30.4688 36.5764,30.4048 C36.5764,30.2728 36.5344,30.2148 36.4924,30.1748 C36.4164,30.1028 36.2764,30.0888 36.1724,30.0888 C35.9644,30.0888 35.8224,30.1288 35.7464,30.2088 C35.6624,30.3008 35.6244,30.4108 35.6244,30.5568 C35.6244,30.7788 35.4444,30.9588 35.2244,30.9588 L34.2044,30.9588 C33.9844,30.9588 33.8044,30.7788 33.8044,30.5568 C33.8044,29.9468 34.0324,29.4348 34.4824,29.0368 C34.9164,28.6528 35.4764,28.4568 36.1464,28.4568 C36.8084,28.4568 37.3504,28.6268 37.7564,28.9608 C38.1864,29.3128 38.4024,29.7968 38.4024,30.3948 C38.4024,30.9528 38.1284,31.5088 37.5904,32.0488 L36.7344,32.8188 L38.2104,32.8188 C38.4304,32.8188 38.6104,32.9988 38.6104,33.2188 M30.6984,26.6428 L30.6984,27.3388 C30.6884,28.3428 30.4844,29.1128 30.0984,29.6268 C29.7344,30.1088 29.2264,30.3448 28.5484,30.3448 C27.8764,30.3448 27.3644,30.0948 26.9844,29.5788 C26.5824,29.0288 26.3784,28.2468 26.3784,27.2528 L26.3784,26.5628 C26.3884,25.5908 26.5964,24.8308 26.9944,24.3028 C27.3704,23.8048 27.8744,23.5628 28.5344,23.5628 C29.2164,23.5628 29.7304,23.8048 30.1044,24.3028 C30.4984,24.8288 30.6984,25.6168 30.6984,26.6428 M30.7524,22.3028 C29.4784,21.4968 27.6244,21.4828 26.3364,22.3108 C25.6944,22.7228 25.1944,23.3188 24.8484,24.0828 C24.5084,24.8288 24.3364,25.6928 24.3364,26.6568 L24.3364,27.3428 C24.3464,28.2848 24.5244,29.1328 24.8644,29.8608 C25.2164,30.6048 25.7164,31.1888 26.3544,31.5928 C26.9904,31.9988 27.7304,32.2048 28.5484,32.2048 C29.3844,32.2048 30.1284,31.9988 30.7624,31.5948 C31.3984,31.1908 31.8944,30.6008 32.2364,29.8428 C32.5704,29.1028 32.7384,28.2328 32.7384,27.2528 L32.7384,26.6568 C32.7384,25.6808 32.5704,24.8088 32.2364,24.0668 C31.8944,23.3048 31.3964,22.7108 30.7524,22.3028 M17.0804,26.5108 L17.0804,27.4268 C17.0804,28.3628 17.2724,29.1088 17.6484,29.6448 C18.0004,30.1428 18.4824,30.3848 19.1204,30.3848 C19.7124,30.3848 20.1604,30.2588 20.4544,30.0088 C20.7484,29.7608 20.9504,29.2908 21.0564,28.6128 C21.0864,28.4188 21.2544,28.2748 21.4504,28.2748 L22.7044,28.2748 C22.8184,28.2748 22.9264,28.3228 23.0024,28.4088 C23.0784,28.4948 23.1144,28.6088 23.1024,28.7208 C22.9724,29.8188 22.5544,30.6828 21.8604,31.2908 C21.1664,31.8968 20.2444,32.2048 19.1204,32.2048 C17.8864,32.2048 16.8804,31.7528 16.1304,30.8588 C15.3984,29.9888 15.0264,28.8208 15.0264,27.3888 L15.0264,26.4808 C15.0264,25.5488 15.1984,24.7108 15.5344,23.9928 C15.8804,23.2608 16.3804,22.6848 17.0204,22.2888 C17.6564,21.8928 18.4004,21.6928 19.2304,21.6928 C20.3344,21.6928 21.2364,22.0108 21.9164,22.6388 C22.5944,23.2648 22.9924,24.1348 23.1024,25.2208 C23.1124,25.3328 23.0764,25.4448 23.0004,25.5288 C22.9244,25.6128 22.8184,25.6608 22.7044,25.6608 L21.4504,25.6608 C21.2524,25.6608 21.0824,25.5148 21.0564,25.3168 C20.9604,24.6588 20.7644,24.1848 20.4724,23.9108 C20.1864,23.6428 19.7784,23.5108 19.2304,23.5108 C18.5604,23.5108 18.0524,23.7488 17.6764,24.2388 C17.2804,24.7528 17.0804,25.5168 17.0804,26.5108 M47.9024,12.8788 C47.9024,14.4508 46.6244,15.7288 45.0524,15.7288 C43.4824,15.7288 42.2024,14.4508 42.2024,12.8788 C42.2024,11.3068 43.4824,10.0288 45.0524,10.0288 C46.6244,10.0288 47.9024,11.3068 47.9024,12.8788 M34.7524,8.5048 C34.7524,6.7808 36.1524,5.3808 37.8744,5.3808 C39.5984,5.3808 40.9984,6.7808 40.9984,8.5048 C40.9984,10.2268 39.5984,11.6288 37.8744,11.6288 C36.1524,11.6288 34.7524,10.2268 34.7524,8.5048 M25.5444,5.9988 C25.5444,4.0588 27.1224,2.4808 29.0624,2.4808 C31.0004,2.4808 32.5784,4.0588 32.5784,5.9988 C32.5784,7.9368 31.0004,9.5148 29.0624,9.5148 C27.1224,9.5148 25.5444,7.9368 25.5444,5.9988 M15.1744,5.2628 C15.1744,3.0308 16.9904,1.2128 19.2224,1.2128 C21.4544,1.2128 23.2724,3.0308 23.2724,5.2628 C23.2724,7.4948 21.4544,9.3108 19.2224,9.3108 C16.9904,9.3108 15.1744,7.4948 15.1744,5.2628 M6.4484,12.8968 C2.8944,12.8968 0.0004,10.0048 0.0004,6.4488 C0.0004,2.8928 2.8944,0.0008 6.4484,0.0008 C10.0044,0.0008 12.8984,2.8928 12.8984,6.4488 C12.8984,10.0048 10.0044,12.8968 6.4484,12.8968 M22.9084,76.2488 C17.7744,76.2488 10.6104,72.3988 10.6104,66.1308 C10.6104,60.1348 15.3164,58.1848 22.4924,55.8968 C27.6784,54.2428 33.0384,52.5348 33.0384,47.3468 C33.0384,42.3928 28.1904,40.7748 23.5024,39.2088 C17.1364,37.0828 10.5524,34.8848 10.5524,25.5468 C10.5524,18.4228 17.6144,15.8848 24.2224,15.8848 C28.6924,15.8848 33.1844,17.0208 36.5484,19.0048 C39.0044,20.4528 41.9324,22.9908 41.9324,26.8648 C41.9324,60.0948 35.7104,76.2488 22.9084,76.2488 M24.2224,12.5848 C13.9144,12.5848 7.2524,17.6728 7.2524,25.5468 C7.2524,37.2608 16.0404,40.1968 22.4564,42.3388 C27.1084,43.8908 29.7384,44.8908 29.7384,47.3468 C29.7384,49.9348 26.6224,51.1168 21.4904,52.7528 C15.1724,54.7668 7.3104,57.2728 7.3104,66.1308 C7.3104,74.0388 15.5304,79.5508 22.9084,79.5508 C37.9304,79.5508 45.2344,62.3168 45.2344,26.8648 C45.2344,17.9268 34.5504,12.5848 24.2224,12.5848" id="Fill-1" fill="#000000" mask="url(#mask-3)"></path>
            </g>
        </g>
    </g>
</svg>