<?xml version="1.0" encoding="UTF-8"?>
<svg width="40px" height="32px" viewBox="0 0 40 32" version="1.1" xmlns="http://www.w3.org/2000/svg" xmlns:xlink="http://www.w3.org/1999/xlink">
    <title>51F2E33B-1063-4F99-B277-2B7D40471D7E</title>
    <defs>
        <filter id="filter-1">
            <feColorMatrix in="SourceGraphic" type="matrix" values="0 0 0 0 1.000000 0 0 0 0 1.000000 0 0 0 0 1.000000 0 0 0 1.000000 0"></feColorMatrix>
        </filter>
        <polygon id="path-2" points="0 -3.55271368e-15 39.7337711 -3.55271368e-15 39.7337711 31.3269 0 31.3269"></polygon>
    </defs>
    <g id="Page-1" stroke="none" stroke-width="1" fill="none" fill-rule="evenodd">
        <g id="Group-3" transform="translate(-1160.000000, -589.000000)" filter="url(#filter-1)">
            <g transform="translate(1160.000000, 589.000000)">
                <mask id="mask-3" fill="white">
                    <use xlink:href="#path-2"></use>
                </mask>
                <g id="Clip-2"></g>
                <path d="M23.7876,7.678 C23.7876,4.787 26.8186,1.241 27.9556,0.17 C28.0766,0.057 28.2096,-3.55271368e-15 28.3436,-3.55271368e-15 C28.4766,-3.55271368e-15 28.6106,0.057 28.7306,0.17 C29.8686,1.241 32.8986,4.787 32.8986,7.678 C32.8986,10.316 30.9816,12.454 28.3436,12.454 C25.7046,12.454 23.7876,10.316 23.7876,7.678 L23.7876,7.678 Z M32.3306,27.955 C30.9426,28.714 23.5976,29.774 21.8166,29.673 C20.7376,29.619 13.5506,26.518 7.1496,23.547 L7.1496,15.679 C8.0456,15.195 10.4726,14.065 13.6266,14.065 C17.8206,14.065 20.8846,15.669 20.9146,15.685 L21.0856,15.777 L21.2786,15.782 C26.5016,15.945 31.5056,16.751 32.2116,17.53 C31.2926,19.457 27.2166,19.496 24.5086,19.521 C22.0526,19.544 20.5706,19.558 20.2396,20.66 C20.0906,21.156 20.1806,21.667 20.4916,22.1 C21.6466,23.713 25.8886,24.097 28.3146,24.183 C32.1126,24.309 33.7926,23.052 35.0166,22.128 C36.0306,21.362 36.5986,20.935 38.0866,21.321 C38.0016,22.294 34.4216,26.816 32.3306,27.955 L32.3306,27.955 Z M5.4996,25.483 C5.4996,25.767 5.2686,25.997 4.9846,25.997 L2.1646,25.997 C1.8816,25.997 1.6506,25.767 1.6506,25.483 L1.6506,13.794 C1.6506,13.511 1.8816,13.28 2.1646,13.28 L4.9846,13.28 C5.2686,13.28 5.4996,13.511 5.4996,13.794 L5.4996,14.757 L5.4996,24.599 L5.4996,25.483 Z M38.5316,19.728 C36.2606,19.119 35.1226,19.979 34.0216,20.811 C32.8816,21.671 31.5896,22.654 28.3726,22.533 C24.3756,22.393 22.4596,21.697 21.9526,21.288 C22.5196,21.19 23.6526,21.179 24.5236,21.171 C27.8886,21.139 32.4966,21.096 33.7656,18.096 C33.9646,17.626 33.9236,17.13 33.6486,16.701 C32.3526,14.679 24.2646,14.232 21.5126,14.139 C20.7506,13.767 17.7036,12.415 13.6266,12.415 C10.7866,12.415 8.4876,13.223 7.1496,13.837 L7.1496,13.794 C7.1496,12.601 6.1786,11.63 4.9846,11.63 L2.1646,11.63 C0.9716,11.63 -0.0004,12.601 -0.0004,13.794 L-0.0004,25.483 C-0.0004,26.677 0.9716,27.648 2.1646,27.648 L4.9846,27.648 C6.1786,27.648 7.1496,26.677 7.1496,25.483 L7.1496,25.365 C10.8646,27.078 20.0336,31.236 21.7346,31.321 C21.8126,31.325 21.9026,31.327 22.0016,31.327 C24.2556,31.327 31.4346,30.324 33.1206,29.404 C34.2286,28.8 40.0216,23.552 39.7226,21.047 C39.6446,20.39 39.2096,19.909 38.5316,19.728 L38.5316,19.728 Z" id="Fill-1" fill="#000000" mask="url(#mask-3)"></path>
            </g>
        </g>
    </g>
</svg>