<?xml version="1.0" encoding="UTF-8"?>
<svg width="364px" height="74px" viewBox="0 0 364 74" version="1.1" xmlns="http://www.w3.org/2000/svg" xmlns:xlink="http://www.w3.org/1999/xlink">
    <title>351AF124-2988-4200-AA15-49EF51E5AFDE</title>
    <defs>
        <polygon id="path-1" points="2.04737733e-05 0.087247113 120.920459 0.087247113 120.920459 71.9912068 2.04737733e-05 71.9912068"></polygon>
    </defs>
    <g id="Page-1" stroke="none" stroke-width="1" fill="none" fill-rule="evenodd">
        <g id="bikeswitch_1920p" transform="translate(-360.000000, -95.000000)">
            <g id="Group" transform="translate(360.000000, 95.809976)">
                <path d="M149.023438,55.0138755 C152.132812,55.0138755 154.554688,53.8771567 156.289062,51.6037192 C158.023438,49.3302817 158.890625,46.162313 158.890625,42.099813 L158.890625,42.099813 L158.890625,41.724813 C158.890625,37.599813 158.011719,34.4005942 156.253906,32.1271567 C154.496094,29.8537192 152.070312,28.7170005 148.976562,28.7170005 C146.429688,28.7170005 144.375,29.631063 142.8125,31.459188 L142.8125,31.459188 L142.8125,18.5451255 L136.039062,18.5451255 L136.039062,54.5451255 L142.132812,54.5451255 L142.4375,51.849813 C144.078125,53.959188 146.273438,55.0138755 149.023438,55.0138755 Z M147.3125,49.552938 C145.140625,49.552938 143.640625,48.662313 142.8125,46.881063 L142.8125,46.881063 L142.8125,36.8732505 C143.625,35.1076255 145.109375,34.224813 147.265625,34.224813 C148.875,34.224813 150.085938,34.8146567 150.898438,35.9943442 C151.710938,37.1740317 152.117188,39.0451255 152.117188,41.6076255 C152.117188,43.7170005 151.953125,45.287313 151.625,46.318563 C150.9375,48.474813 149.5,49.552938 147.3125,49.552938 Z M166.8125,26.1388755 C167.953125,26.1388755 168.871094,25.8107505 169.566406,25.1545005 C170.261719,24.4982505 170.609375,23.6545005 170.609375,22.6232505 C170.609375,21.6076255 170.265625,20.771688 169.578125,20.115438 C168.890625,19.459188 167.96875,19.131063 166.8125,19.131063 C165.640625,19.131063 164.714844,19.459188 164.035156,20.115438 C163.355469,20.771688 163.015625,21.6076255 163.015625,22.6232505 C163.015625,23.6545005 163.363281,24.4982505 164.058594,25.1545005 C164.753906,25.8107505 165.671875,26.1388755 166.8125,26.1388755 Z M170.210938,54.5451255 L170.210938,29.1857505 L163.414062,29.1857505 L163.414062,54.5451255 L170.210938,54.5451255 Z M182.5625,54.5451255 L182.5625,46.8107505 L185,44.3732505 L191.515625,54.5451255 L199.296875,54.5451255 L189.335938,39.756063 L198.5,29.1857505 L190.367188,29.1857505 L183.875,36.802938 L182.5625,38.490438 L182.5625,18.5451255 L175.789062,18.5451255 L175.789062,54.5451255 L182.5625,54.5451255 Z M213.101562,55.0138755 C215.210938,55.0138755 217.132812,54.6115317 218.867188,53.8068442 C220.601562,53.0021567 221.976562,51.881063 222.992188,50.443563 L222.992188,50.443563 L219.664062,46.7170005 C218.195312,48.6076255 216.15625,49.552938 213.546875,49.552938 C211.859375,49.552938 210.464844,49.052938 209.363281,48.052938 C208.261719,47.052938 207.601562,45.724813 207.382812,44.068563 L207.382812,44.068563 L223.53125,44.068563 L223.53125,41.302938 C223.53125,37.287313 222.535156,34.1857505 220.542969,31.9982505 C218.550781,29.8107505 215.820312,28.7170005 212.351562,28.7170005 C210.039062,28.7170005 207.980469,29.2599692 206.175781,30.3459067 C204.371094,31.4318442 202.976562,32.9787192 201.992188,34.9865317 C201.007812,36.9943442 200.515625,39.271688 200.515625,41.818563 L200.515625,41.818563 L200.515625,42.474813 C200.515625,46.271688 201.683594,49.3107505 204.019531,51.5920005 C206.355469,53.8732505 209.382812,55.0138755 213.101562,55.0138755 Z M216.875,39.4513755 L207.453125,39.4513755 C207.6875,37.7638755 208.222656,36.4670005 209.058594,35.5607505 C209.894531,34.6545005 210.984375,34.2013755 212.328125,34.2013755 C213.765625,34.2013755 214.875,34.6115317 215.65625,35.4318442 C216.4375,36.2521567 216.84375,37.412313 216.875,38.912313 L216.875,38.912313 L216.875,39.4513755 Z M237.03125,55.0138755 C240.171875,55.0138755 242.734375,54.2990317 244.71875,52.8693442 C246.703125,51.4396567 247.695312,49.568563 247.695312,47.256063 C247.695312,44.021688 245.90625,41.7482505 242.328125,40.4357505 C241.171875,40.0138755 239.75,39.6349692 238.0625,39.2990317 C236.375,38.9630942 235.175781,38.5646567 234.464844,38.1037192 C233.753906,37.6427817 233.398438,37.037313 233.398438,36.287313 C233.398438,35.490438 233.710938,34.834188 234.335938,34.318563 C234.960938,33.802938 235.84375,33.5451255 236.984375,33.5451255 C238.3125,33.5451255 239.289062,33.8615317 239.914062,34.4943442 C240.539062,35.1271567 240.851562,35.927938 240.851562,36.896688 L240.851562,36.896688 L247.625,36.896688 C247.625,34.474813 246.660156,32.506063 244.730469,30.990438 C242.800781,29.474813 240.226562,28.7170005 237.007812,28.7170005 C233.992188,28.7170005 231.550781,29.4709067 229.683594,30.9787192 C227.816406,32.4865317 226.882812,34.365438 226.882812,36.615438 C226.882812,40.474813 229.898438,43.037313 235.929688,44.302938 C237.742188,44.677938 239.058594,45.1037192 239.878906,45.5802817 C240.699219,46.0568442 241.109375,46.709188 241.109375,47.537313 C241.109375,48.334188 240.777344,48.9787192 240.113281,49.4709067 C239.449219,49.9630942 238.46875,50.209188 237.171875,50.209188 C235.78125,50.209188 234.671875,49.8888755 233.84375,49.2482505 C233.015625,48.6076255 232.570312,47.6857505 232.507812,46.4826255 L232.507812,46.4826255 L226.085938,46.4826255 C226.085938,48.0138755 226.554688,49.4396567 227.492188,50.7599692 C228.429688,52.0802817 229.722656,53.1193442 231.371094,53.8771567 C233.019531,54.6349692 234.90625,55.0138755 237.03125,55.0138755 Z M262.226562,54.5451255 L267.03125,38.584188 L271.835938,54.5451255 L277.507812,54.5451255 L283.976562,29.1857505 L277.4375,29.1857505 L274.109375,45.334188 L269.492188,29.1857505 L264.59375,29.1857505 L259.953125,45.3107505 L256.648438,29.1857505 L250.109375,29.1857505 L256.578125,54.5451255 L262.226562,54.5451255 Z M291.078125,26.1388755 C292.21875,26.1388755 293.136719,25.8107505 293.832031,25.1545005 C294.527344,24.4982505 294.875,23.6545005 294.875,22.6232505 C294.875,21.6076255 294.53125,20.771688 293.84375,20.115438 C293.15625,19.459188 292.234375,19.131063 291.078125,19.131063 C289.90625,19.131063 288.980469,19.459188 288.300781,20.115438 C287.621094,20.771688 287.28125,21.6076255 287.28125,22.6232505 C287.28125,23.6545005 287.628906,24.4982505 288.324219,25.1545005 C289.019531,25.8107505 289.9375,26.1388755 291.078125,26.1388755 Z M294.476562,54.5451255 L294.476562,29.1857505 L287.679688,29.1857505 L287.679688,54.5451255 L294.476562,54.5451255 Z M308.65625,55.0138755 C310.0625,55.0138755 311.429688,54.8107505 312.757812,54.4045005 L312.757812,54.4045005 L312.757812,49.271688 C312.179688,49.381063 311.515625,49.4357505 310.765625,49.4357505 C309.75,49.4357505 309.0625,49.2326255 308.703125,48.8263755 C308.34375,48.4201255 308.164062,47.7482505 308.164062,46.8107505 L308.164062,46.8107505 L308.164062,34.1545005 L312.5,34.1545005 L312.5,29.1857505 L308.164062,29.1857505 L308.164062,22.9513755 L301.390625,22.9513755 L301.390625,29.1857505 L297.6875,29.1857505 L297.6875,34.1545005 L301.390625,34.1545005 L301.390625,47.818563 C301.484375,52.615438 303.90625,55.0138755 308.65625,55.0138755 Z M326.9375,55.0138755 C328.875,55.0138755 330.644531,54.6193442 332.246094,53.8302817 C333.847656,53.0412192 335.109375,51.9318442 336.03125,50.5021567 C336.953125,49.0724692 337.421875,47.4982505 337.4375,45.7795005 L337.4375,45.7795005 L331.085938,45.7795005 C331.054688,46.9201255 330.648438,47.834188 329.867188,48.521688 C329.085938,49.209188 328.070312,49.552938 326.820312,49.552938 C325.195312,49.552938 323.984375,48.9826255 323.1875,47.8420005 C322.390625,46.7013755 321.992188,44.8263755 321.992188,42.2170005 L321.992188,42.2170005 L321.992188,41.5138755 C321.992188,38.9357505 322.394531,37.0724692 323.199219,35.9240317 C324.003906,34.7755942 325.195312,34.2013755 326.773438,34.2013755 C328.054688,34.2013755 329.085938,34.6115317 329.867188,35.4318442 C330.648438,36.2521567 331.054688,37.318563 331.085938,38.631063 L331.085938,38.631063 L337.4375,38.631063 C337.40625,35.631063 336.433594,33.2287192 334.519531,31.4240317 C332.605469,29.6193442 330.0625,28.7170005 326.890625,28.7170005 C323.265625,28.7170005 320.414062,29.881063 318.335938,32.209188 C316.257812,34.537313 315.21875,37.6545005 315.21875,41.5607505 L315.21875,41.5607505 L315.21875,42.006063 C315.21875,46.068563 316.265625,49.2521567 318.359375,51.5568442 C320.453125,53.8615317 323.3125,55.0138755 326.9375,55.0138755 Z M347.914062,54.5451255 L347.914062,36.521688 C348.804688,34.990438 350.242188,34.224813 352.226562,34.224813 C353.679688,34.224813 354.71875,34.5724692 355.34375,35.2677817 C355.96875,35.9630942 356.28125,37.037313 356.28125,38.490438 L356.28125,38.490438 L356.28125,54.5451255 L363.054688,54.5451255 L363.054688,38.302938 C362.976562,31.912313 360.1875,28.7170005 354.6875,28.7170005 C351.96875,28.7170005 349.710938,29.7951255 347.914062,31.9513755 L347.914062,31.9513755 L347.914062,18.5451255 L341.140625,18.5451255 L341.140625,54.5451255 L347.914062,54.5451255 Z" id="bikeswitch" fill="#000000" fill-rule="nonzero"></path>
                <g id="Group-11" transform="translate(0.000000, -0.000000)">
                    <g id="Group-10" transform="translate(0.000000, 0.190024)">
                        <mask id="mask-2" fill="white">
                            <use xlink:href="#path-1"></use>
                        </mask>
                        <g id="Clip-9"></g>
                        <path d="M120.455213,7.34776851 L110.859565,12.8747132 C110.23921,13.2320579 109.463868,12.7854536 109.463868,12.0708664 L109.463868,8.33105362 L33.6966778,8.33105362 C25.6530442,8.33105362 18.0907489,11.4560579 12.4030323,17.1303728 C6.71531574,22.8047898 3.5829308,30.3491643 3.5829308,38.3738451 C3.5829308,46.3986281 6.71531574,53.9430026 12.4030323,59.6174196 C18.0907489,65.2917345 25.6530442,68.4167387 33.6966778,68.4167387 L96.7766804,68.4167387 C97.7660755,68.4167387 98.5681355,69.2169089 98.5681355,70.2039728 C98.5681355,71.1910366 97.7660755,71.9912068 96.7766804,71.9912068 L32.5810619,71.9912068 C32.4685585,71.9912068 32.3584096,71.9807898 32.2517413,71.9610791 C23.7934113,71.6073089 15.8920704,68.1533515 9.86950525,62.144977 C3.50502809,55.795394 2.04737733e-05,47.3534196 2.04737733e-05,38.3738451 C2.04737733e-05,29.3943728 3.50502809,20.9522962 9.86950525,14.6028153 C15.8921728,8.59444085 23.7934113,5.1404834 32.2517413,4.78671319 C32.3584096,4.76690043 32.4685585,4.75658553 32.5810619,4.75658553 L109.463868,4.75658553 L109.463868,1.01687489 C109.463868,0.30228766 110.23921,-0.144316596 110.859565,0.213028085 L120.455213,5.73997277 C121.075569,6.09721532 121.075569,6.99042383 120.455213,7.34776851 M95.4142531,37.2167387 C95.4085205,36.5354451 95.6288183,36.0630026 96.2790653,35.8730451 C97.2114409,35.6006706 98.1793386,35.4493174 99.1925856,35.2335217 L99.1925856,39.0282791 C98.182512,38.8261685 97.2323242,38.6735898 96.3036338,38.4364494 C95.7213597,38.2877515 95.4194739,37.8421685 95.4142531,37.2167387 M106.130533,52.2894536 C104.971513,54.4672238 102.351075,55.4026111 100.089849,54.445777 C97.8854376,53.5130451 96.6906905,51.0325685 97.4101389,48.7422536 C97.5748504,48.8970791 97.6955433,49.0080919 97.8134723,49.12176 C98.9135281,50.1818451 100.180957,50.9447387 101.688748,51.2710366 C102.239595,51.3903217 102.704657,51.1040579 102.828523,50.5966877 C102.946042,50.1155643 102.672206,49.6700834 102.153093,49.5045345 C102.023494,49.4632749 101.888879,49.4381515 101.758564,49.3990366 C100.357646,48.97776 99.2740712,48.1262196 98.3942108,46.9951557 C99.8334147,45.2101685 102.561238,44.8434281 104.532658,46.1331983 C106.574814,47.4693345 107.270103,50.1482451 106.130533,52.2894536 M60.4856888,45.350594 C55.6968733,45.3516153 50.9079553,45.3485515 46.1191398,45.3593792 C45.7994418,45.3599898 45.6777252,45.2299813 45.5801677,44.9570962 C45.1754012,43.8247047 44.7534367,42.698543 44.3349528,41.5710536 C43.574045,39.520943 42.8099638,37.4722621 42.0496702,35.4220494 C41.6320052,34.2957855 41.2194587,33.1677855 40.7903284,32.0018962 C40.9659934,31.9864749 41.0796228,31.9678877 41.1932523,31.9677855 C46.8341863,31.9663557 52.4752227,31.9695217 58.1161567,31.9590002 C58.4672819,31.9583898 58.5693437,32.0779813 58.6244181,32.4102026 C59.1848876,35.7936919 59.7647049,39.1741174 60.3382777,42.5554621 C60.4930594,43.4686877 60.6448724,44.3822196 60.8031347,45.3260834 C60.6497861,45.3383387 60.5676863,45.3504919 60.4856888,45.350594 M41.3947142,45.3380323 C41.2940856,45.3352749 41.1418631,45.1902536 41.1084909,45.0821004 C40.8064003,44.1005515 40.5560061,43.1024579 40.2310873,42.1287728 C39.7619308,40.7229855 38.8250509,39.625726 37.7614384,38.6292664 C37.4959959,38.3805855 37.1944173,38.1702026 36.8686795,37.9095728 C37.3154173,37.1971302 37.7308301,36.5413685 38.1392819,35.8813174 C38.5581753,35.2041089 38.9701076,34.5227132 39.4560526,33.7269345 C40.912864,37.6596664 42.3243259,41.4694366 43.7616871,45.3498791 C42.919908,45.3498791 42.1569528,45.3594791 41.3947142,45.3380323 M32.8882709,54.5854877 C29.0921262,55.5671387 25.1400738,53.8292323 23.2408242,50.3721089 C21.360001,46.9487898 22.0690078,42.7157004 24.9812997,40.0231047 C27.9191838,37.3069174 32.0139384,37.3080409 34.3910459,38.6306962 C34.3684223,38.6876834 34.3527599,38.7520238 34.3198995,38.8060494 C33.1999841,40.6506791 32.0843682,42.4979643 30.9462311,44.3312579 C30.8504139,44.485777 30.6139418,44.588926 30.4221025,44.6426451 C29.7061347,44.8428153 29.1968496,45.4093174 29.135633,46.1219643 C29.0691956,46.896194 29.4516457,47.5747302 30.1175552,47.86416 C30.7814173,48.1525685 31.4672887,47.9740494 32.0270416,47.4224579 C32.1727125,47.2788664 32.424847,47.1718366 32.6294824,47.1694877 C34.3333098,47.149777 36.037342,47.1583557 37.7413741,47.15856 L39.2473225,47.15856 C39.1290865,49.7508664 37.1468157,53.484143 32.8882709,54.5854877 M35.908869,39.5487217 C37.4309917,40.2402281 39.3521482,43.6477174 39.1957286,45.3207728 L32.3865611,45.3207728 C33.5879621,43.35216 34.7501558,41.4475813 35.908869,39.5487217 M102.738541,43.5763302 C100.90276,43.3517515 99.2646533,43.8391047 97.8120391,44.9692494 C97.6792667,45.0726026 97.5474156,45.1770791 97.3736956,45.313726 C97.3056203,45.1260153 97.2444037,44.9742536 97.1951643,44.8185089 C96.658342,43.1183898 96.1340086,41.4142877 95.5851068,39.7181515 C94.9589164,37.7834451 94.6453606,36.9360919 94.0261313,34.9991387 C93.6130729,33.7070196 91.5297641,32.800126 91.4117328,32.7527387 C82.4012252,29.1365004 71.6004909,26.5445004 61.0626398,25.7308494 C60.0341398,25.3525685 59.0294917,24.8649089 58.7327244,24.0188834 C58.489803,23.3263557 57.9606584,22.8711728 57.2657785,22.6206536 C55.7416085,22.0713089 54.1469063,21.9183217 52.5475975,21.817726 C52.0355484,21.7854536 51.6640518,22.1742536 51.6308843,22.6578281 C51.5952599,23.1757174 51.9084063,23.556143 52.4590484,23.634577 C53.5707743,23.7924664 54.6823978,23.9542366 55.7971948,24.0871047 C56.6742912,24.1918877 57.1786626,24.6648409 57.3499257,25.5152579 C57.6612294,27.06096 57.9726355,28.6067643 58.3030822,30.2474451 L57.7254147,30.2474451 C52.0325797,30.247343 46.3397447,30.2434621 40.6469096,30.2559217 C40.2653809,30.2566366 40.0685255,30.162577 39.9505966,29.7831728 C39.7448352,29.1207728 39.479188,28.47696 39.2108792,27.7502196 C39.4161288,27.7344919 39.5744934,27.7135557 39.7330628,27.7117174 C40.3294638,27.7048749 40.927298,27.7285685 41.5219587,27.6947643 C42.1667802,27.6581004 42.6219122,27.1662536 42.6597887,26.5312238 C42.6979723,25.8925174 42.3089706,25.3641089 41.6837015,25.2248068 C41.5193995,25.188143 41.3463961,25.1778281 41.1772827,25.1776238 C39.4899367,25.1746621 37.8024883,25.1731302 36.1151423,25.1779302 C35.0861305,25.1807898 34.6232184,25.64976 34.6206592,26.6775728 C34.6193284,27.1533855 34.6027447,27.6303217 34.6296677,28.1045004 C34.6649849,28.7270706 35.1088563,28.9906621 35.6904139,28.7594451 C36.2263149,28.5465089 36.7607827,28.3299983 37.3596406,28.0894877 C37.6488327,28.8611643 37.8617599,29.6334536 38.2190272,30.3323132 C38.6881838,31.2500323 38.5770112,31.9923983 37.9909494,32.8383217 C37.073622,34.1624068 36.2902954,35.5787132 35.424869,36.9976749 C35.2580078,36.9291472 35.1069113,36.8696068 34.9577599,36.8054706 C27.9183648,33.78096 20.1966812,38.9630196 20.361188,46.6015557 C20.4722582,51.7627813 24.6598614,56.2428153 29.7388927,56.6339643 C35.2647641,57.0596323 40.067809,53.4575898 41.0009012,48.1881089 C41.1832201,47.15856 41.1832201,47.15856 42.2185788,47.15856 C57.2005695,47.15856 72.1824579,47.154577 87.1645509,47.1698962 C87.9307819,47.1707132 88.415089,46.9389855 88.8076736,46.2499302 C90.136831,43.9172323 91.5317091,41.6217089 92.8988453,39.3104579 C93.0182074,39.1085515 93.1191431,38.8958196 93.3064782,38.5406196 C93.4361795,38.9050111 93.5333276,39.1478706 93.6095924,39.3970621 C94.2253411,41.4090791 94.8255298,43.425794 95.4579646,45.4325004 C95.6201169,45.9466111 96.034199,46.4250791 96.0512946,46.9292834 C96.0682878,47.4311387 95.6925941,47.9347302 95.5563411,48.4550706 C94.6184376,52.0392409 96.9016728,55.7330962 100.517853,56.5074281 C104.252576,57.3072919 107.808461,54.8685855 108.446936,51.0695387 C109.050605,47.4783217 106.424332,44.0271217 102.738541,43.5763302" id="Fill-8" fill="#329B46" mask="url(#mask-2)"></path>
                    </g>
                </g>
            </g>
        </g>
    </g>
</svg>