<?xml version="1.0" encoding="UTF-8"?>
<svg width="41px" height="38px" viewBox="0 0 41 38" version="1.1" xmlns="http://www.w3.org/2000/svg" xmlns:xlink="http://www.w3.org/1999/xlink">
    <title>2E52F9DC-B78B-4723-A1D3-2548018B7BA6</title>
    <defs>
        <filter id="filter-1">
            <feColorMatrix in="SourceGraphic" type="matrix" values="0 0 0 0 1.000000 0 0 0 0 1.000000 0 0 0 0 1.000000 0 0 0 1.000000 0"></feColorMatrix>
        </filter>
        <polygon id="path-2" points="0 0 40.4976 0 40.4976 37.9517 0 37.9517"></polygon>
    </defs>
    <g id="Page-1" stroke="none" stroke-width="1" fill="none" fill-rule="evenodd">
        <g id="Group-3" transform="translate(-1424.000000, -587.000000)" filter="url(#filter-1)">
            <g transform="translate(1424.000000, 587.000000)">
                <mask id="mask-3" fill="white">
                    <use xlink:href="#path-2"></use>
                </mask>
                <g id="Clip-2"></g>
                <path d="M28.3046,17.54 C27.4126,17.54 26.6876,16.815 26.6876,15.923 C26.6876,15.032 27.4126,14.307 28.3046,14.307 C29.1966,14.307 29.9216,15.032 29.9216,15.923 C29.9216,16.815 29.1966,17.54 28.3046,17.54 M30.1996,0 C30.1376,0 30.0756,0.006 30.0146,0.017 C29.9216,0.035 27.7196,0.464 26.0766,1.802 C25.1186,2.582 24.4456,3.576 24.0056,4.386 C23.8376,4.696 23.5206,4.873 23.1776,4.873 C23.1226,4.873 23.0666,4.869 23.0106,4.859 C21.9826,4.686 20.9236,4.59 19.8396,4.59 C13.5086,4.59 7.9596,7.613 4.9056,12.121 C4.7256,12.387 4.4336,12.552 4.1226,12.552 C4.0626,12.552 4.0016,12.546 3.9406,12.533 C3.2576,12.388 2.3656,12.009 2.1076,11.013 C1.7216,9.526 2.4826,9.074 2.6176,9.008 C3.1266,8.793 3.3656,8.207 3.1516,7.698 C2.9906,7.316 2.6176,7.085 2.2286,7.085 C2.0996,7.085 1.9686,7.11 1.8416,7.164 C0.9696,7.531 -0.5034,8.913 0.1716,11.515 C0.5556,12.998 1.6196,13.818 2.7046,14.239 C3.1656,14.418 3.4086,14.942 3.2406,15.408 C2.7016,16.894 2.4036,18.475 2.4036,20.12 C2.4036,24.304 4.2806,28.099 7.3136,30.894 C7.6216,31.177 7.7216,31.621 7.5446,32 L6.9746,33.224 C6.5366,34.16 6.9426,35.273 7.8786,35.709 L12.5026,37.866 C12.6256,37.923 12.7586,37.952 12.8916,37.952 C12.9976,37.952 13.1046,37.933 13.2056,37.896 C13.4356,37.813 13.6216,37.642 13.7256,37.421 L14.5286,35.699 C14.6876,35.357 15.0266,35.156 15.3906,35.156 C15.4626,35.156 15.5356,35.164 15.6096,35.18 C16.9646,35.484 18.3806,35.65 19.8396,35.65 C21.0616,35.65 22.2496,35.525 23.3996,35.307 C23.4616,35.295 23.5236,35.29 23.5846,35.29 C23.9496,35.29 24.2866,35.492 24.4466,35.832 L25.1876,37.421 C25.2896,37.642 25.4776,37.813 25.7056,37.896 C25.8076,37.933 25.9136,37.952 26.0206,37.952 C26.1536,37.952 26.2856,37.923 26.4086,37.866 L31.0336,35.709 C31.9696,35.273 32.3746,34.16 31.9386,33.224 L31.5906,32.479 C31.4076,32.086 31.5216,31.628 31.8516,31.348 C33.8136,29.685 35.3466,27.626 36.2736,25.31 C36.4186,24.945 36.7596,24.699 37.1536,24.699 L38.5466,24.699 C39.6246,24.699 40.4976,23.826 40.4976,22.748 L40.4976,17.491 C40.4976,16.414 39.6246,15.54 38.5466,15.54 L37.1536,15.54 C36.7606,15.54 36.4186,15.294 36.2736,14.929 C35.1976,12.238 33.3036,9.894 30.8676,8.117 C30.6706,7.974 30.5356,7.768 30.4926,7.527 C30.3686,6.828 30.2226,5.734 30.3126,4.833 C30.4606,3.335 31.1396,1.344 31.1466,1.324 C31.2626,0.987 31.1906,0.614 30.9566,0.345 C30.7646,0.123 30.4856,0 30.1996,0 M28.7116,2.533 C28.5466,3.195 28.3906,3.946 28.3226,4.635 C28.2116,5.748 28.3706,7.012 28.5246,7.876 C28.6566,8.622 29.0706,9.281 29.6896,9.733 C31.8626,11.318 33.4956,13.372 34.4156,15.672 C34.8696,16.807 35.9446,17.54 37.1536,17.54 L38.4976,17.54 L38.4976,22.699 L37.1536,22.699 C35.9446,22.699 34.8696,23.433 34.4156,24.567 C33.6306,26.531 32.2966,28.349 30.5576,29.822 C29.5396,30.686 29.2196,32.125 29.7786,33.324 L30.0706,33.952 L26.5426,35.597 L26.2586,34.987 C25.7786,33.956 24.7286,33.29 23.5846,33.29 C23.3986,33.29 23.2106,33.307 23.0266,33.342 C21.9506,33.546 20.8776,33.65 19.8396,33.65 C18.5696,33.65 17.2926,33.508 16.0466,33.228 C15.8316,33.181 15.6116,33.156 15.3906,33.156 C14.2456,33.156 13.1966,33.822 12.7156,34.854 L12.3686,35.597 L8.8416,33.952 L9.3576,32.846 C9.9016,31.679 9.6246,30.303 8.6686,29.422 C5.9176,26.888 4.4036,23.584 4.4036,20.12 C4.4036,18.761 4.6446,17.405 5.1206,16.088 C5.3286,15.511 6.2166,13.75 6.5616,13.243 C9.3416,9.139 14.4306,6.59 19.8396,6.59 C20.7686,6.59 21.7236,6.671 22.6796,6.832 C22.8446,6.859 23.0116,6.873 23.1776,6.873 C24.2606,6.873 25.2506,6.286 25.7636,5.339 C26.0756,4.765 26.6016,3.954 27.3396,3.353 C27.7646,3.007 28.2526,2.738 28.7116,2.533" id="Fill-1" fill="#4A4A4A" mask="url(#mask-3)"></path>
            </g>
        </g>
    </g>
</svg>